# xmcd
#
# Track frame offsets: 
#        150
#        25598
#        45572
#        56776
#        74949
#        97027
#        112844
#        134906
#        147094
#        173481
#        203387
#        218811
#        245354
#
# Disc length: 3471 seconds
#
# Revision: 1
# Processed by: cddbd v1.5.2PL0 Copyright (c) Steve Scherf et al.
# Submitted via: ExactAudioCopyFreeDBPlugin 1.0
#
DISCID=bc0d8d0d
DTITLE=David Bromberg Band - The Blues, The Whole Blues and Nothing But 
DTITLE=The Blues
DYEAR=2016
DGENRE=Blues
TTITLE0=Walkin' Blues
TTITLE1=How Come My Dog Don't Bark When You Come 'Round?
TTITLE2=Kentucky Blues
TTITLE3=Why Are People Like That?
TTITLE4=A Fool For You
TTITLE5=Eyesight To The Blind
TTITLE6=900 Miles
TTITLE7=Yield Not To Temptation
TTITLE8=You've Been A Good Ole Wagon
TTITLE9=Delia
TTITLE10=The Blues, The Whole Blues and Nothing But The Blues
TTITLE11=This Month
TTITLE12=You Don't Have To Go
EXTD=
EXTT0=
EXTT1=
EXTT2=
EXTT3=
EXTT4=
EXTT5=
EXTT6=
EXTT7=
EXTT8=
EXTT9=
EXTT10=
EXTT11=
EXTT12=
PLAYORDER=
